<svg xmlns="http://www.w3.org/2000/svg" viewBox="0 0 1024 1024" fill="none">
  <rect width="1024" height="1024" fill="#ffffff" />
  <path
    fill="#000000"
    d="M95 654.5 280.625 450H98.5938V367.281H397.5V439.188L211.875 643.688H408.281V726.406H95ZM368.719 791.156H446.438Q462.984 791.156 472.703 781.078Q482.422 771 482.422 750.844V367.281H575.938V757.328Q575.938 811.266 547.875 840.406Q519.812 869.547 465.875 869.547H368.719ZM471.906 264.156Q471.906 240.406 488.812 223.859Q505.719 207.312 529.469 207.312Q552.5 207.312 569.406 223.859Q586.312 240.406 586.312 264.156Q586.312 287.188 569.406 304.094Q552.5 321 529.469 321Q505.719 321 488.812 304.094Q471.906 287.188 471.906 264.156ZM655.969 654.5 841.594 450H659.562V367.281H958.469V439.188L772.844 643.688H969.25V726.406H655.969Z"
  />
</svg>
